<?xml version="1.0" standalone="no"?>
<!DOCTYPE svg PUBLIC "-//W3C//DTD SVG 20010904//EN"
 "http://www.w3.org/TR/2001/REC-SVG-20010904/DTD/svg10.dtd">
<svg version="1.0" xmlns="http://www.w3.org/2000/svg"
 width="157.000000pt" height="157.000000pt" viewBox="0 0 157.000000 157.000000"
 preserveAspectRatio="xMidYMid meet">
<metadata>
Created by potrace 1.11, written by Peter Selinger 2001-2013
</metadata>
<g transform="translate(0.000000,157.000000) scale(0.100000,-0.100000)"
fill="#000000" stroke="none">
<path d="M110 1370 l0 -26 310 1 310 0 0 25 0 25 -310 0 -310 0 0 -25z"/>
<path d="M110 741 l0 -427 78 1 77 1 3 127 c1 70 6 127 10 127 4 0 28 -55 52
-122 24 -68 45 -125 47 -128 4 -5 145 -8 155 -3 3 2 -25 85 -63 185 l-69 182
71 120 c40 67 74 124 76 129 2 4 -34 7 -80 7 l-84 0 -54 -87 -54 -88 -5 200
-5 201 -77 1 -78 2 0 -428z"/>
<path d="M764 1123 c3 -27 21 -144 41 -260 19 -117 37 -229 40 -250 3 -21 8
-49 11 -63 7 -39 10 -59 24 -147 8 -46 16 -84 19 -84 3 -1 32 -2 64 -3 l57 -2
9 35 c4 20 23 117 41 216 18 99 36 189 40 199 4 12 13 -13 24 -70 22 -119 25
-132 31 -174 4 -19 14 -73 23 -120 l17 -85 63 0 c37 -1 62 3 63 9 1 12 4 31
19 121 5 33 12 74 15 90 2 17 15 100 29 185 56 344 66 408 66 428 0 20 -5 21
-70 21 -65 -1 -70 -2 -71 -22 0 -12 -2 -33 -5 -47 -11 -67 -15 -89 -20 -135
-3 -27 -7 -57 -10 -65 -3 -8 -7 -38 -10 -67 -3 -29 -7 -61 -9 -71 -2 -9 -4
-21 -5 -27 -2 -10 -33 136 -45 205 -5 33 -18 99 -20 110 -1 3 -5 29 -10 58 -4
28 -13 53 -19 53 -44 5 -108 4 -112 -2 -2 -4 -20 -92 -39 -196 -20 -103 -39
-197 -43 -207 -6 -13 -14 20 -25 100 -10 65 -19 128 -21 139 -2 11 -7 43 -10
70 -14 109 -8 102 -88 104 l-70 1 6 -47z"/>
<path d="M550 120 l0 -25 453 0 452 0 0 25 0 25 -452 0 -453 0 0 -25z"/>
</g>
</svg>
